<svg width="229" height="186" viewBox="0 0 229 186" fill="none" xmlns="http://www.w3.org/2000/svg">
<g clip-path="url(#clip0_30_601)">
<path d="M101 38.7281C100.059 38.824 99.1171 38.9626 98.1757 38.9839C96.8618 39.0266 95.5583 38.9733 94.2444 38.9519C93.8617 38.9733 93.4685 38.9946 93.0858 38.9946H11.6053C11.2225 38.9946 10.8294 38.9733 10.4466 38.9519C8.36717 38.9733 6.27739 38.9839 4.19796 38.9946C4.13589 38.5681 4.0014 38.1417 4.0014 37.7152C3.99106 32.9815 4.04278 28.2478 4.0014 23.5248C3.94967 17.3518 5.96703 12.1916 10.8708 8.42813C13.5399 6.38112 16.4883 5.01645 19.9023 5.01645C36.786 5.01645 53.6697 4.96315 70.5534 5.04844C76.2538 5.06976 80.6713 7.85241 83.9301 12.5648C86.1026 15.6886 88.1717 18.887 90.2718 22.0535C92.3512 25.188 94.4203 28.3224 96.4894 31.4676C96.5825 31.6062 96.5825 31.7981 96.6342 31.9687C97.0687 32.619 97.5136 33.2694 97.9481 33.9197C98.9723 35.5189 99.9861 37.1288 101 38.7281Z" fill="#FF8B8B"/>
<path d="M228.99 59.31C228.99 57.46 228.88 55.6 228.75 53.75C228.3 47.6 225.45 42.73 220.72 38.87C216.35 35.31 211.19 34.21 205.74 34.11C201.04 34.03 196.33 34.09 191.62 34.1C179.79 34.11 167.96 34.13 156.13 34.1C155.58 34.1 154.81 33.75 154.51 33.32C149.29 25.77 144.07 18.23 138.97 10.6C134.23 3.47997 127.55 0.0399668 119.1 0.0299668C86.9001 -0.0200332 54.7001 -3.32352e-05 22.4901 0.0299668C20.6401 0.0399668 18.7701 0.299967 16.9501 0.659967C7.87011 2.48997 0.0701133 10.52 0.0501133 21.61C-0.0298867 68.96 0.000113273 116.31 0.0301133 163.66C0.0301133 165.25 0.230113 166.87 0.530113 168.44C2.27011 177.63 10.6201 185.29 20.5101 185.53C23.7201 185.61 26.9201 185.67 30.1201 185.67C58.0801 185.68 86.0301 185.67 113.98 185.67C141.93 185.67 170.98 185.68 199.47 185.67C202.59 185.67 205.72 185.63 208.84 185.51C211.74 185.41 214.51 184.69 217.07 183.32C225 179.1 228.95 172.36 228.97 163.51C229.04 128.78 229 94.05 228.99 59.31ZM86.2901 5.20997C97.6301 5.20997 108.96 5.16997 120.29 5.22997C126 5.25997 130.73 7.39997 134.03 12.21C138.83 19.18 143.61 26.18 148.4 33.17C148.54 33.37 148.64 33.6 148.83 33.93C147.81 34.67 146.69 34.28 145.64 34.28C145.15 34.28 144.66 34.11 144.17 34.11C131.68 34.1 119.18 34.1 106.68 34.1C106.43 34.1 106.15 34.03 105.93 34.11C103.9 34.95 102.99 33.7 102 32.23C97.5401 25.62 93.0401 19.04 88.5001 12.49C86.7801 10.02 84.8901 7.65997 83.0501 5.20997H86.2901ZM223.82 162.85C223.82 166.2 223.6 169.49 221.8 172.43C219.15 176.73 215.49 179.65 210.3 180.27C209.11 180.41 207.91 180.51 206.72 180.51C145.19 180.53 83.6501 180.48 22.1101 180.58C13.5701 180.59 7.26011 175.32 5.35011 167.79C5.28011 167.51 5.28011 167.22 5.28011 166.93C5.25011 164.11 5.21011 161.29 5.21011 158.47C5.20011 118.79 5.20011 79.12 5.19011 39.44C5.19011 38.65 5.20011 37.87 5.21011 37.08C5.15011 36.68 5.02011 36.28 5.02011 35.88C5.01011 31.44 5.06011 27 5.02011 22.57C4.97011 16.78 6.92011 11.94 11.6601 8.40997C14.2401 6.48997 17.0901 5.20997 20.3901 5.20997C36.7101 5.20997 53.0301 5.15997 69.3501 5.23997C74.8601 5.25997 79.1301 7.86997 82.2801 12.29C84.3801 15.22 86.3801 18.22 88.4101 21.19C90.4201 24.13 92.4201 27.07 94.4201 30.02C94.5101 30.15 94.5101 30.33 94.5601 30.49C94.9801 31.1 95.4101 31.71 95.8301 32.32C96.8201 33.82 97.8001 35.33 98.7801 36.83C99.1301 37.12 99.5501 37.34 99.8001 37.69C100.63 38.84 101.72 39.29 103.12 39.29C120.62 39.26 138.12 39.25 155.62 39.25C169.53 39.24 183.44 39.24 197.36 39.25C201.1 39.25 204.86 39.11 208.59 39.33C215.34 39.72 220.05 43.26 222.66 49.38C223.43 51.18 223.72 53.3 223.74 55.28C223.86 64.78 223.81 74.28 223.81 83.79C223.81 110.14 223.8 136.49 223.82 162.85Z" fill="#858786"/>
<path d="M123.25 75.56C123.08 80.43 122.93 85.29 122.73 90.16C122.59 93.62 122.39 97.08 122.23 100.53C122.06 104.32 121.91 108.11 121.72 111.9C121.59 114.54 121.55 117.19 121.19 119.8C120.74 123.07 118.15 125.43 114.87 125.71C112.26 125.93 108.48 124.08 107.79 119.96C107.44 117.89 107.35 115.78 107.25 113.68C107.03 108.9 106.9 104.11 106.71 99.33C106.57 95.7 106.4 92.08 106.22 88.46C105.99 83.73 105.64 79 105.52 74.27C105.42 70.27 108.24 66.6 112.15 65.67C118.64 64.11 123.6 69.01 123.24 74.08C123.2 74.58 123.24 75.07 123.24 75.57L123.25 75.56ZM112.59 114.97C112.52 114.97 112.45 114.98 112.38 114.99C112.51 116.3 112.58 117.62 112.79 118.92C112.95 119.88 113.56 120.72 114.61 120.62C115.61 120.52 116.14 119.67 116.24 118.68C116.36 117.49 116.45 116.29 116.48 115.09C116.59 111.28 116.6 107.47 116.76 103.66C116.95 98.96 117.25 94.27 117.49 89.58C117.51 89.25 117.5 88.92 117.52 88.58C117.76 83.88 118.06 79.18 118.23 74.48C118.32 71.91 116.78 70.45 114.28 70.46C112.11 70.46 110.64 72.05 110.71 74.48C110.83 78.44 111.06 82.4 111.21 86.36C111.4 91.45 111.51 96.54 111.75 101.63C111.96 106.08 112.3 110.53 112.58 114.98L112.59 114.97Z" fill="#858786"/>
<path d="M209.27 90.4099C209.27 82.6099 209.27 74.8099 209.28 67.0099C209.28 66.1899 209.35 65.3399 209.59 64.5599C209.94 63.3999 211.04 62.8099 212.24 62.9699C213.34 63.1199 214.19 63.9899 214.26 65.1599C214.37 66.7599 214.49 68.3699 214.49 69.9699C214.51 84.5699 214.5 99.1799 214.49 113.78C214.49 114.55 214.39 115.34 214.24 116.1C214.01 117.27 213.13 117.96 211.95 118.02C210.73 118.09 209.95 117.43 209.58 116.38C209.34 115.7 209.29 114.92 209.28 114.18C209.26 106.26 209.27 98.3299 209.27 90.4099Z" fill="#858786"/>
<path d="M105.24 144.31C105.13 140.1 106.69 136.72 110.56 134.82C117.02 131.66 123.69 136.91 123.55 142.8C123.5 144.94 123.72 147.06 122.86 149.08C121.25 152.85 117.49 155.42 112.83 154.55C107.96 153.63 105.27 149.39 105.24 145.56C105.24 145.15 105.24 144.73 105.24 144.32V144.31ZM118.5 144.46C118.5 143.71 118.5 143.22 118.5 142.72C118.46 141.12 117.24 139.62 115.57 139.11C113.89 138.59 112.25 139.13 111.28 140.51C109.89 142.49 109.83 145.94 111.26 147.89C112.54 149.63 114.93 150.43 116.99 148.59C118.33 147.38 118.73 145.92 118.5 144.46Z" fill="#858786"/>
<path d="M209.27 140.92C209.27 136.94 209.26 132.96 209.28 128.99C209.28 128.34 209.33 127.66 209.52 127.03C209.88 125.81 210.83 125.33 212.4 125.49C213.52 125.61 214.06 126.36 214.23 127.37C214.39 128.3 214.48 129.25 214.48 130.19C214.5 137.73 214.51 145.27 214.47 152.82C214.47 153.66 214.2 154.51 214.01 155.34C213.72 156.56 212.84 156.95 211.68 156.93C210.49 156.91 209.85 156.21 209.53 155.19C209.35 154.61 209.29 153.97 209.29 153.36C209.27 149.22 209.28 145.07 209.28 140.93L209.27 140.92Z" fill="#858786"/>
<path d="M112.59 114.97C112.31 110.52 111.97 106.07 111.76 101.62C111.52 96.53 111.41 91.44 111.22 86.35C111.07 82.39 110.84 78.43 110.72 74.47C110.65 72.04 112.12 70.46 114.29 70.45C116.79 70.44 118.33 71.9 118.24 74.47C118.07 79.17 117.77 83.87 117.53 88.57C117.51 88.9 117.52 89.23 117.5 89.57C117.25 94.26 116.96 98.96 116.77 103.65C116.62 107.46 116.6 111.27 116.49 115.08C116.46 116.28 116.37 117.48 116.25 118.67C116.15 119.66 115.62 120.52 114.62 120.61C113.56 120.71 112.96 119.88 112.8 118.91C112.58 117.61 112.52 116.29 112.39 114.98C112.46 114.98 112.53 114.97 112.6 114.96L112.59 114.97Z" fill="#FF8B8B"/>
<path d="M118.5 144.46C118.73 145.92 118.33 147.38 116.99 148.59C114.93 150.44 112.54 149.64 111.26 147.89C109.83 145.94 109.89 142.49 111.28 140.51C112.25 139.13 113.89 138.59 115.57 139.11C117.24 139.62 118.46 141.13 118.5 142.72C118.51 143.22 118.5 143.71 118.5 144.46Z" fill="#FF8B8B"/>
</g>
<defs>
<clipPath id="clip0_30_601">
<rect width="229.01" height="185.67" fill="white"/>
</clipPath>
</defs>
</svg>
